name ./resultDataOpenSim/trcMotMarkerGrf/sub09/grf-03-03.mot
datacolumns 19
datarows 15
range 1.43200000 1.48800000
endheader

                time	     ground_force_vx	     ground_force_vy	     ground_force_vz	     ground_force_px	     ground_force_py	     ground_force_pz	   l_ground_force_vx	   l_ground_force_vy	   l_ground_force_vz	   l_ground_force_px	   l_ground_force_py	   l_ground_force_pz	     ground_torque_x	     ground_torque_y	     ground_torque_z	   l_ground_torque_x	   l_ground_torque_y	   l_ground_torque_z	
          1.43200000	        -40.75285042	        438.80567140	        -23.56173685	          0.98578190	          0.00000000	          0.12572324	          0.00000000	          0.00000000	          0.00000000	          0.00000000	          0.00000000	          0.00000000	          0.00000000	          3.03936938	          0.00000000	          0.00000000	          0.00000000	          0.00000000	
          1.43600000	        -37.11536156	        432.68010287	        -24.89149166	          0.98896358	          0.00000000	          0.12569892	          0.00000000	          0.00000000	          0.00000000	          0.00000000	          0.00000000	          0.00000000	          0.00000000	          2.84581309	          0.00000000	          0.00000000	          0.00000000	          0.00000000	
          1.44000000	        -32.65438458	        427.43526649	        -24.79878672	          0.99167519	          0.00000000	          0.12561962	          0.00000000	          0.00000000	          0.00000000	          0.00000000	          0.00000000	          0.00000000	          0.00000000	          2.66404627	          0.00000000	          0.00000000	          0.00000000	          0.00000000	
          1.44400000	        -28.33317576	        423.08069206	        -23.21195448	          0.99404060	          0.00000000	          0.12548428	          0.00000000	          0.00000000	          0.00000000	          0.00000000	          0.00000000	          0.00000000	          0.00000000	          2.55066891	          0.00000000	          0.00000000	          0.00000000	          0.00000000	
          1.44800000	        -25.01926914	        419.61426950	        -20.33678911	          0.99620885	          0.00000000	          0.12529607	          0.00000000	          0.00000000	          0.00000000	          0.00000000	          0.00000000	          0.00000000	          0.00000000	          2.54487877	          0.00000000	          0.00000000	          0.00000000	          0.00000000	
          1.45200000	        -23.26178750	        417.01447077	        -16.61049947	          0.99830225	          0.00000000	          0.12505692	          0.00000000	          0.00000000	          0.00000000	          0.00000000	          0.00000000	          0.00000000	          0.00000000	          2.65802311	          0.00000000	          0.00000000	          0.00000000	          0.00000000	
          1.45600000	        -23.16056152	        415.21282460	        -12.62293456	          1.00037527	          0.00000000	          0.12477463	          0.00000000	          0.00000000	          0.00000000	          0.00000000	          0.00000000	          0.00000000	          0.00000000	          2.86931423	          0.00000000	          0.00000000	          0.00000000	          0.00000000	
          1.46000000	        -24.36537923	        414.07628094	         -9.01476388	          1.00242072	          0.00000000	          0.12447739	          0.00000000	          0.00000000	          0.00000000	          0.00000000	          0.00000000	          0.00000000	          0.00000000	          3.12952496	          0.00000000	          0.00000000	          0.00000000	          0.00000000	
          1.46400000	        -26.19277265	        413.44104773	         -6.36560825	          1.00437002	          0.00000000	          0.12421051	          0.00000000	          0.00000000	          0.00000000	          0.00000000	          0.00000000	          0.00000000	          0.00000000	          3.37271209	          0.00000000	          0.00000000	          0.00000000	          0.00000000	
          1.46800000	        -27.82157447	        413.17790837	         -5.08991852	          1.00611306	          0.00000000	          0.12401103	          0.00000000	          0.00000000	          0.00000000	          0.00000000	          0.00000000	          0.00000000	          0.00000000	          3.53348543	          0.00000000	          0.00000000	          0.00000000	          0.00000000	
          1.47200000	        -28.52093959	        413.21935438	         -5.35888330	          1.00755134	          0.00000000	          0.12388901	          0.00000000	          0.00000000	          0.00000000	          0.00000000	          0.00000000	          0.00000000	          0.00000000	          3.56508084	          0.00000000	          0.00000000	          0.00000000	          0.00000000	
          1.47600000	        -27.84930938	        413.52538112	         -7.06370946	          1.00862468	          0.00000000	          0.12383452	          0.00000000	          0.00000000	          0.00000000	          0.00000000	          0.00000000	          0.00000000	          0.00000000	          3.45273316	          0.00000000	          0.00000000	          0.00000000	          0.00000000	
          1.48000000	        -25.75787906	        414.04788172	         -9.83345006	          1.00934694	          0.00000000	          0.12383622	          0.00000000	          0.00000000	          0.00000000	          0.00000000	          0.00000000	          0.00000000	          0.00000000	          3.21820619	          0.00000000	          0.00000000	          0.00000000	          0.00000000	
          1.48400000	        -22.57278373	        414.74892059	        -13.11106292	          1.00978375	          0.00000000	          0.12388134	          0.00000000	          0.00000000	          0.00000000	          0.00000000	          0.00000000	          0.00000000	          0.00000000	          2.91436831	          0.00000000	          0.00000000	          0.00000000	          0.00000000	
          1.48800000	        -18.88551373	        415.63666478	        -16.27047479	          1.01001927	          0.00000000	          0.12393893	          0.00000000	          0.00000000	          0.00000000	          0.00000000	          0.00000000	          0.00000000	          0.00000000	          2.61202292	          0.00000000	          0.00000000	          0.00000000	          0.00000000	
